<svg width="96" height="96" xmlns="http://www.w3.org/2000/svg" xmlns:xlink="http://www.w3.org/1999/xlink" xml:space="preserve" overflow="hidden"><g transform="translate(-488 -120)"><path d="M503.25 175.25C503.246 179.252 500.002 182.496 496 182.5L495 182.5 495 198 577 198 577 182.5 576 182.5C571.996 182.5 568.75 179.254 568.75 175.25 568.75 171.246 571.996 168 576 168L577 168 577 152 495 152 495 168 496 168C500.002 168.004 503.246 171.248 503.25 175.25ZM497 166.054 497 154 514 154 514 158 516 158 516 154 575 154 575 166.054C569.921 166.605 566.251 171.169 566.802 176.248 567.271 180.567 570.681 183.977 575 184.446L575 196 516 196 516 192 514 192 514 196 497 196 497 184.446C502.079 183.895 505.749 179.331 505.198 174.252 504.729 169.933 501.319 166.523 497 166.054Z"/><path d="M514 162 516 162 516 168 514 168Z"/><path d="M514 172 516 172 516 178 514 178Z"/><path d="M514 182 516 182 516 188 514 188Z"/><path d="M527 166 560 166 560 168 527 168Z"/><path d="M541 174 560 174 560 176 541 176Z"/><path d="M534 182 560 182 560 184 534 184Z"/><path d="M558.457 149 548.923 149 508.239 141.171 506.73 149 504.693 149 506.654 138.829 558.476 148.8C558.531 148.805 558.572 148.854 558.567 148.91 558.561 148.965 558.512 149.005 558.457 149Z"/></g></svg>